<svg width="118" height="39" viewBox="0 0 118 39" fill="none" xmlns="http://www.w3.org/2000/svg">
<path d="M2.2 20.6C1.88 20.5467 1.57333 20.4267 1.28 20.24C1.01333 20.08 0.88 19.8267 0.88 19.48C0.88 18.8933 1.2 18.28 1.84 17.64C2.48 16.9733 3.28 16.3333 4.24 15.72C5.2 15.1067 6.14667 14.6 7.08 14.2C6.49333 13.5867 6.02667 13 5.68 12.44C5.33333 11.8533 5.16 11.2667 5.16 10.68C5.16 9.88 5.53333 9.12 6.28 8.4C7.02667 7.65333 8.21333 6.92 9.84 6.2C10.6133 5.85333 11.3067 5.61333 11.92 5.48C12.56 5.34667 13.12 5.28 13.6 5.28C14.2133 5.28 14.72 5.36 15.12 5.52C15.52 5.68 15.8133 5.86667 16 6.08C16.4267 6.58667 16.64 7.09333 16.64 7.6C16.64 8.24 16.36 8.78667 15.8 9.24C15.24 9.69333 14.72 10.0667 14.24 10.36C14.16 10.3867 14.08 10.4267 14 10.48C13.92 10.5333 13.8533 10.5867 13.8 10.64C13.64 10.7467 13.5467 10.8133 13.52 10.84C13.28 11.0533 13.04 11.1067 12.8 11C12.6667 10.92 12.6 10.8133 12.6 10.68C12.6 10.5467 12.6667 10.44 12.8 10.36C13.0933 10.2267 13.4267 9.97333 13.8 9.6C14.2 9.2 14.5467 8.78667 14.84 8.36C15.16 7.90667 15.32 7.52 15.32 7.2C15.32 7.04 15.28 6.90667 15.2 6.8C15.04 6.64 14.72 6.56 14.24 6.56C13.6533 6.56 12.96 6.69333 12.16 6.96C11.3867 7.22667 10.6267 7.58667 9.88 8.04C9.16 8.46667 8.56 8.94667 8.08 9.48C7.6 9.98667 7.36 10.4933 7.36 11C7.36 11.4533 7.50667 11.8933 7.8 12.32C8.12 12.72 8.46667 13.1067 8.84 13.48C9.58667 13.16 10.4667 12.8933 11.48 12.68C12.52 12.44 13.5867 12.2533 14.68 12.12C15.8 11.9867 16.88 11.8933 17.92 11.84C18.96 11.7867 19.8533 11.76 20.6 11.76C21.0533 11.76 21.44 11.76 21.76 11.76C22.08 11.76 22.3333 11.7867 22.52 11.84C22.76 11.8933 22.88 12 22.88 12.16C22.88 12.2667 22.8267 12.36 22.72 12.44C22.64 12.52 22.5467 12.56 22.44 12.56C22.2533 12.56 22.0533 12.5467 21.84 12.52C21.6533 12.4933 21.4267 12.48 21.16 12.48C20.3333 12.48 19.3467 12.5467 18.2 12.68C17.0533 12.7867 15.8933 12.9333 14.72 13.12C13.5733 13.28 12.5333 13.4667 11.6 13.68C10.6667 13.8933 10 14.1067 9.6 14.32C10.0533 14.9333 10.28 15.5867 10.28 16.28C10.28 17.5067 9.68 18.4667 8.48 19.16C7.68 19.6667 6.77333 20.04 5.76 20.28C4.77333 20.5467 3.89333 20.68 3.12 20.68C2.93333 20.68 2.76 20.6667 2.6 20.64C2.46667 20.64 2.33333 20.6267 2.2 20.6ZM3.08 19.44C3.37333 19.44 3.90667 19.32 4.68 19.08C5.48 18.8667 6.21333 18.5467 6.88 18.12C7.78667 17.56 8.24 16.92 8.24 16.2C8.24 15.7467 8.02667 15.2667 7.6 14.76C7.09333 14.9467 6.46667 15.3067 5.72 15.84C5 16.3467 4.36 16.88 3.8 17.44C3.18667 18.0533 2.8 18.56 2.64 18.96C2.64 18.9867 2.62667 19.0133 2.6 19.04C2.6 19.0667 2.6 19.1067 2.6 19.16C2.6 19.32 2.76 19.4133 3.08 19.44ZM31.2322 19.52C30.0855 19.52 29.2855 19.2533 28.8322 18.72C28.3789 18.16 28.1522 17.5067 28.1522 16.76C28.1522 16.3067 28.2055 15.84 28.3122 15.36C28.4189 14.88 28.5522 14.4 28.7122 13.92C28.2855 14.4 27.7655 14.9467 27.1522 15.56C26.5389 16.1467 25.8855 16.72 25.1922 17.28C24.4989 17.84 23.7922 18.3067 23.0722 18.68C22.3789 19.0267 21.7122 19.2 21.0722 19.2C20.6989 19.2 20.3389 19.12 19.9922 18.96C19.6722 18.8 19.3789 18.5333 19.1122 18.16C18.7389 17.6267 18.5522 17.0533 18.5522 16.44C18.5522 15.5867 18.8189 14.76 19.3522 13.96C19.9122 13.1333 20.4189 12.3867 20.8722 11.72C21.2455 11.16 21.5922 10.6933 21.9122 10.32C22.2322 9.92 22.4855 9.58667 22.6722 9.32C22.8589 9.05333 22.9522 8.82667 22.9522 8.64C22.9522 8.50667 22.8855 8.4 22.7522 8.32C22.5389 8.16 22.4322 7.97333 22.4322 7.76C22.4322 7.49333 22.5789 7.36 22.8722 7.36C22.9255 7.36 23.0322 7.38667 23.1922 7.44C23.6455 7.62667 24.0189 7.93333 24.3122 8.36C24.6322 8.76 24.7922 9.21333 24.7922 9.72C24.7922 10.12 24.6989 10.4667 24.5122 10.76C24.2189 11.16 23.9122 11.5467 23.5922 11.92C23.2455 12.2667 22.8322 12.72 22.3522 13.28C22.1389 13.5467 21.8455 13.96 21.4722 14.52C21.0989 15.08 20.7655 15.6533 20.4722 16.24C20.2055 16.8267 20.0722 17.32 20.0722 17.72C20.0722 17.9067 20.1122 18.0533 20.1922 18.16C20.2722 18.2667 20.4455 18.32 20.7122 18.32C21.0855 18.32 21.5522 18.1733 22.1122 17.88C22.6989 17.5867 23.2455 17.2667 23.7522 16.92C24.2855 16.5467 24.6722 16.2667 24.9122 16.08C25.7655 15.36 26.6455 14.56 27.5522 13.68C28.4589 12.7733 29.2855 11.8667 30.0322 10.96C30.3522 10.56 30.6989 10.36 31.0722 10.36C31.3655 10.36 31.6055 10.48 31.7922 10.72C32.0055 10.96 32.1122 11.2533 32.1122 11.6C32.1122 11.8667 32.0322 12.12 31.8722 12.36C31.4455 13.1067 31.0322 13.9067 30.6322 14.76C30.2322 15.5867 30.0322 16.4267 30.0322 17.28C30.0322 18.2133 30.4189 18.68 31.1922 18.68C31.5655 18.68 32.0722 18.56 32.7122 18.32C34.0455 17.84 35.2989 16.96 36.4722 15.68C37.6455 14.4 38.5389 12.8133 39.1522 10.92C39.4189 10.1467 39.5522 9.44 39.5522 8.8C39.5522 7.92 39.3522 7.28 38.9522 6.88C38.5789 6.48 38.2455 6.26667 37.9522 6.24C37.8722 6.24 37.6455 6.28 37.2722 6.36C36.8989 6.44 36.4855 6.69333 36.0322 7.12C35.8722 7.22667 35.7389 7.28 35.6322 7.28C35.4722 7.28 35.3522 7.2 35.2722 7.04C35.2455 7.01333 35.2322 6.96 35.2322 6.88C35.2322 6.61333 35.4055 6.33333 35.7522 6.04C35.9655 5.90667 36.1922 5.76 36.4322 5.6C36.6722 5.44 36.8722 5.32 37.0322 5.24C37.5122 5.05333 37.9789 4.96 38.4322 4.96C39.3122 4.96 40.0455 5.30667 40.6322 6C41.2189 6.66667 41.5122 7.54667 41.5122 8.64C41.5122 9.06667 41.4722 9.50667 41.3922 9.96C41.3122 10.3867 41.1655 10.84 40.9522 11.32C40.5789 12.2 40.0455 13.12 39.3522 14.08C38.6855 15.04 37.9122 15.9333 37.0322 16.76C36.1522 17.5867 35.2189 18.2533 34.2322 18.76C33.2455 19.2667 32.2455 19.52 31.2322 19.52ZM49.8684 19.52C49.2551 19.52 48.6684 19.4533 48.1084 19.32C47.5484 19.1867 47.0418 18.9867 46.5884 18.72C45.4151 17.9733 44.8284 16.9867 44.8284 15.76C44.8284 14.8 45.1484 13.8267 45.7884 12.84C46.4551 11.8267 47.3084 10.8667 48.3484 9.96C49.3884 9.05333 50.4818 8.30667 51.6284 7.72C52.3218 7.34667 53.0151 7.08 53.7084 6.92C54.4018 6.76 55.0151 6.68 55.5484 6.68C56.4818 6.68 57.0951 6.86667 57.3884 7.24C57.7084 7.58667 57.8684 8 57.8684 8.48C57.8684 8.98667 57.7084 9.48 57.3884 9.96C57.0684 10.4133 56.6151 10.8667 56.0284 11.32C55.0151 12.1467 53.6284 12.88 51.8684 13.52C50.1351 14.16 48.3484 14.6133 46.5084 14.88C46.2418 15.4133 46.1084 15.9067 46.1084 16.36C46.1618 17.1067 46.5484 17.64 47.2684 17.96C48.0151 18.2533 48.8418 18.4 49.7484 18.4C50.0684 18.4 50.3751 18.3867 50.6684 18.36C50.9618 18.3333 51.2418 18.2933 51.5084 18.24C52.8418 17.9733 54.2018 17.4933 55.5884 16.8C57.0018 16.1067 58.3618 15.3067 59.6684 14.4C60.9751 13.4933 62.1484 12.5867 63.1884 11.68C63.3484 11.6267 63.4551 11.6 63.5084 11.6C63.6951 11.6 63.7884 11.6933 63.7884 11.88C63.7884 12.0133 63.7351 12.1467 63.6284 12.28C63.4418 12.6 63.0551 13.0133 62.4684 13.52C61.9084 14.0267 61.2684 14.5467 60.5484 15.08C59.8284 15.5867 59.1218 16.08 58.4284 16.56C57.7618 17.0133 57.2018 17.36 56.7484 17.6C55.7884 18.1333 54.6951 18.5867 53.4684 18.96C52.2418 19.3333 51.0418 19.52 49.8684 19.52ZM47.1884 13.76C48.0418 13.5467 49.0284 13.28 50.1484 12.96C51.2684 12.6133 52.3351 12.2133 53.3484 11.76C54.3618 11.28 55.1218 10.76 55.6284 10.2C55.8418 9.98667 55.9884 9.77333 56.0684 9.56C56.1484 9.32 56.1884 9.12 56.1884 8.96C56.1884 8.82667 56.1351 8.70667 56.0284 8.6C55.9484 8.49333 55.6818 8.44 55.2284 8.44C54.5884 8.44 53.7618 8.70667 52.7484 9.24C51.7351 9.74667 50.7218 10.4133 49.7084 11.24C48.7218 12.04 47.8818 12.88 47.1884 13.76ZM66.7825 19.52C66.1692 19.52 65.5825 19.4533 65.0225 19.32C64.4625 19.1867 63.9558 18.9867 63.5025 18.72C62.3292 17.9733 61.7425 16.9867 61.7425 15.76C61.7425 14.8 62.0625 13.8267 62.7025 12.84C63.3692 11.8267 64.2225 10.8667 65.2625 9.96C66.3025 9.05333 67.3958 8.30667 68.5425 7.72C69.2358 7.34667 69.9292 7.08 70.6225 6.92C71.3158 6.76 71.9292 6.68 72.4625 6.68C73.3958 6.68 74.0092 6.86667 74.3025 7.24C74.6225 7.58667 74.7825 8 74.7825 8.48C74.7825 8.98667 74.6225 9.48 74.3025 9.96C73.9825 10.4133 73.5292 10.8667 72.9425 11.32C71.9292 12.1467 70.5425 12.88 68.7825 13.52C67.0492 14.16 65.2625 14.6133 63.4225 14.88C63.1558 15.4133 63.0225 15.9067 63.0225 16.36C63.0758 17.1067 63.4625 17.64 64.1825 17.96C64.9292 18.2533 65.7558 18.4 66.6625 18.4C66.9825 18.4 67.2892 18.3867 67.5825 18.36C67.8758 18.3333 68.1558 18.2933 68.4225 18.24C69.7558 17.9733 71.1158 17.4933 72.5025 16.8C73.9158 16.1067 75.2758 15.3067 76.5825 14.4C77.8892 13.4933 79.0625 12.5867 80.1025 11.68C80.2625 11.6267 80.3692 11.6 80.4225 11.6C80.6092 11.6 80.7025 11.6933 80.7025 11.88C80.7025 12.0133 80.6492 12.1467 80.5425 12.28C80.3558 12.6 79.9692 13.0133 79.3825 13.52C78.8225 14.0267 78.1825 14.5467 77.4625 15.08C76.7425 15.5867 76.0358 16.08 75.3425 16.56C74.6758 17.0133 74.1158 17.36 73.6625 17.6C72.7025 18.1333 71.6092 18.5867 70.3825 18.96C69.1558 19.3333 67.9558 19.52 66.7825 19.52ZM64.1025 13.76C64.9558 13.5467 65.9425 13.28 67.0625 12.96C68.1825 12.6133 69.2492 12.2133 70.2625 11.76C71.2758 11.28 72.0358 10.76 72.5425 10.2C72.7558 9.98667 72.9025 9.77333 72.9825 9.56C73.0625 9.32 73.1025 9.12 73.1025 8.96C73.1025 8.82667 73.0492 8.70667 72.9425 8.6C72.8625 8.49333 72.5958 8.44 72.1425 8.44C71.5025 8.44 70.6758 8.70667 69.6625 9.24C68.6492 9.74667 67.6358 10.4133 66.6225 11.24C65.6358 12.04 64.7958 12.88 64.1025 13.76ZM80.6966 19.92C79.7899 19.92 78.9632 19.7333 78.2166 19.36C77.4966 19.0133 77.1366 18.3067 77.1366 17.24C77.1366 16.52 77.4032 15.7067 77.9366 14.8C78.4966 13.8667 79.2166 12.88 80.0966 11.84C81.0032 10.8 81.9766 9.76 83.0166 8.72C84.0832 7.68 85.1232 6.70667 86.1366 5.8C85.8699 5.74667 85.6166 5.69333 85.3766 5.64C85.1632 5.58667 84.9499 5.53333 84.7366 5.48C83.5366 5.18667 82.0966 4.84 80.4166 4.44C78.7632 4.01333 76.9899 3.61333 75.0966 3.24C73.2299 2.84 71.2966 2.50667 69.2966 2.24C67.2966 1.94667 65.3499 1.8 63.4566 1.8C60.9766 1.8 58.7232 2.12 56.6966 2.76C54.6699 3.4 53.1232 4.53333 52.0566 6.16C51.9766 6.26667 51.8966 6.36 51.8166 6.44C51.7366 6.52 51.6566 6.57333 51.5766 6.6C51.5499 6.6 51.5366 6.61333 51.5366 6.64C51.5099 6.64 51.4832 6.64 51.4566 6.64C51.2966 6.64 51.1899 6.54667 51.1366 6.36C51.1099 6.30667 51.0966 6.22667 51.0966 6.12C51.0966 5.77333 51.1899 5.49333 51.3766 5.28C52.2299 4.02667 53.3099 3.04 54.6166 2.32C55.8966 1.6 57.3366 1.09333 58.9366 0.799999C60.5099 0.48 62.1499 0.32 63.8566 0.32C65.5899 0.32 67.3366 0.439999 69.0966 0.679999C70.8566 0.893332 72.5499 1.17333 74.1766 1.52C75.8032 1.84 77.2966 2.18667 78.6566 2.56C80.0432 2.90667 81.2032 3.21333 82.1366 3.48C82.7766 3.64 83.5499 3.82667 84.4566 4.04C85.3632 4.25333 86.3499 4.45333 87.4166 4.64L89.7766 2.6C89.6699 2.30667 89.7766 1.94667 90.0966 1.52C90.4432 1.09333 90.9232 0.746666 91.5366 0.479999C91.5899 0.453333 91.7099 0.439999 91.8966 0.439999C92.1632 0.439999 92.4699 0.479999 92.8166 0.559999C93.1632 0.639999 93.4699 0.759999 93.7366 0.919999C94.0032 1.08 94.1366 1.28 94.1366 1.52C94.1366 1.62667 94.0432 1.77333 93.8566 1.96C93.6699 2.14667 93.4566 2.32 93.2166 2.48C93.0032 2.64 92.8566 2.74667 92.7766 2.8C92.4832 2.96 92.0699 3.24 91.5366 3.64C91.0299 4.01333 90.4299 4.46667 89.7366 5C91.6566 5.29333 93.4832 5.44 95.2166 5.44C96.5499 5.44 97.7366 5.33333 98.7766 5.12C99.8166 4.88 100.643 4.48 101.257 3.92C101.87 3.36 102.177 2.61333 102.177 1.68C102.177 1.57333 102.177 1.48 102.177 1.4C102.177 1.29333 102.163 1.18667 102.137 1.08V1.04C102.137 0.773332 102.283 0.639999 102.577 0.639999C102.79 0.639999 102.937 0.759999 103.017 0.999999C103.043 1.16 103.057 1.32 103.057 1.48C103.083 1.64 103.097 1.8 103.097 1.96C103.097 3.24 102.723 4.25333 101.977 5C101.23 5.72 100.257 6.24 99.0566 6.56C97.8566 6.85333 96.5632 7 95.1766 7C94.0299 7 92.8566 6.92 91.6566 6.76C90.4832 6.6 89.3499 6.42667 88.2566 6.24C87.1899 7.12 86.1099 8.08 85.0166 9.12C83.9232 10.16 82.9099 11.1867 81.9766 12.2C81.0432 13.2133 80.2832 14.1467 79.6966 15C79.1366 15.8533 78.8566 16.5467 78.8566 17.08C78.8566 18.12 79.6966 18.64 81.3766 18.64C82.6299 18.64 84.0966 18.3333 85.7766 17.72C85.9366 17.6667 86.0966 17.6133 86.2566 17.56C86.4432 17.48 86.6299 17.4 86.8166 17.32C88.0432 16.7867 89.2566 16.12 90.4566 15.32C91.6566 14.4933 92.7499 13.6667 93.7366 12.84C93.8699 12.7067 94.0032 12.6 94.1366 12.52C94.2699 12.4133 94.3899 12.32 94.4966 12.24C94.6299 12.1333 94.7499 12.04 94.8566 11.96C94.9899 11.8533 95.1366 11.7333 95.2966 11.6C95.4566 11.5467 95.5632 11.52 95.6166 11.52C95.8032 11.52 95.8966 11.6133 95.8966 11.8C95.8966 11.9867 95.8299 12.1467 95.6966 12.28C95.5366 12.4933 95.1499 12.8933 94.5366 13.48C93.9232 14.04 93.1632 14.6667 92.2566 15.36C91.3499 16.0533 90.3632 16.72 89.2966 17.36C88.2566 18 87.2032 18.5067 86.1366 18.88C85.6032 19.0667 84.8166 19.28 83.7766 19.52C82.7366 19.7867 81.7099 19.92 80.6966 19.92ZM82.0566 38.8C81.2566 38.8 80.4966 38.6667 79.7766 38.4C79.0299 38.1333 78.4166 37.7467 77.9366 37.24C77.4566 36.7333 77.2166 36.12 77.2166 35.4C77.2166 33.8 77.7366 32.36 78.7766 31.08C79.8166 29.8267 81.0699 28.72 82.5366 27.76C83.2566 27.2533 84.0166 26.7867 84.8166 26.36C85.5899 25.9333 86.3632 25.5333 87.1366 25.16C87.9099 24.7867 88.6432 24.44 89.3366 24.12C90.0299 23.8267 90.6699 23.5467 91.2566 23.28C91.8699 23.0133 92.6432 22.7067 93.5766 22.36C94.5099 22.0133 95.5099 21.6533 96.5766 21.28C97.6432 20.9333 98.6966 20.5867 99.7366 20.24C100.803 19.92 101.763 19.64 102.617 19.4C103.017 18.6267 103.363 17.7333 103.657 16.72C103.977 15.68 104.137 14.7733 104.137 14C104.137 13.4133 104.043 12.9867 103.857 12.72C103.35 13.2267 102.897 13.6933 102.497 14.12C102.123 14.52 101.737 14.92 101.337 15.32C100.937 15.6933 100.443 16.1333 99.8566 16.64C99.0299 17.36 98.1766 18 97.2966 18.56C96.4166 19.0933 95.5899 19.36 94.8166 19.36C94.0432 19.36 93.4166 19.04 92.9366 18.4C92.6432 18 92.4966 17.52 92.4966 16.96C92.4966 16.08 92.8166 15.1467 93.4566 14.16C94.0966 13.1467 94.8699 12.2 95.7766 11.32C95.8299 11.24 95.9632 11.08 96.1766 10.84C96.3899 10.6 96.6166 10.3467 96.8566 10.08C97.0966 9.81333 97.2832 9.62667 97.4166 9.52C97.4432 9.38667 97.4966 9.22667 97.5766 9.04C97.6832 8.82667 97.8299 8.62667 98.0166 8.44C98.1766 8.25333 98.3632 8.09333 98.5766 7.96C98.8166 7.8 99.0432 7.72 99.2566 7.72C99.4166 7.72 99.5499 7.76 99.6566 7.84C99.8966 7.94667 100.11 8.09333 100.297 8.28C100.51 8.44 100.617 8.62667 100.617 8.84C100.617 9.08 100.483 9.33333 100.217 9.6L99.3766 10.4C98.6832 11.0667 97.9232 11.84 97.0966 12.72C96.2699 13.5733 95.5499 14.4 94.9366 15.2C94.3499 16 94.0299 16.64 93.9766 17.12C93.9499 17.2 93.9366 17.28 93.9366 17.36C93.9366 17.44 93.9366 17.52 93.9366 17.6C93.9366 17.9733 94.0032 18.2267 94.1366 18.36C94.2966 18.4933 94.4566 18.56 94.6166 18.56C95.0166 18.56 95.4832 18.4 96.0166 18.08C96.5766 17.76 97.0966 17.4133 97.5766 17.04C98.0832 16.64 98.4432 16.3467 98.6566 16.16C99.4299 15.4667 100.19 14.7733 100.937 14.08C101.683 13.36 102.417 12.6667 103.137 12C103.137 11.76 103.257 11.5467 103.497 11.36C103.737 11.1467 104.11 11.04 104.617 11.04C105.203 11.04 105.643 11.2933 105.937 11.8C106.257 12.3067 106.417 12.9467 106.417 13.72C106.417 14.3333 106.323 15.04 106.137 15.84C105.95 16.6133 105.657 17.4533 105.257 18.36C107.123 17.5333 108.857 16.6667 110.457 15.76C112.057 14.8533 113.563 13.7467 114.977 12.44C115.137 12.3067 115.323 12.12 115.537 11.88C115.777 11.64 116.003 11.4133 116.217 11.2C116.483 10.96 116.723 10.76 116.937 10.6C117.177 10.44 117.337 10.3733 117.417 10.4C117.55 10.4533 117.617 10.56 117.617 10.72C117.617 10.8267 117.55 10.9867 117.417 11.2C117.31 11.3867 117.137 11.6133 116.897 11.88C116.657 12.1467 116.35 12.48 115.977 12.88C114.51 14.3467 112.87 15.6267 111.057 16.72C109.243 17.7867 107.07 18.8267 104.537 19.84C103.23 22.4 101.683 24.8267 99.8966 27.12C98.1366 29.4133 96.2432 31.4267 94.2166 33.16C92.2166 34.92 90.1766 36.2933 88.0966 37.28C86.0166 38.2933 84.0032 38.8 82.0566 38.8ZM81.3366 37.52C82.4566 37.52 83.7632 37.24 85.2566 36.68C86.7499 36.1467 88.2699 35.4 89.8166 34.44C91.3899 33.48 92.8166 32.36 94.0966 31.08C94.6566 30.52 95.3232 29.7867 96.0966 28.88C96.8699 27.9733 97.6432 27.0133 98.4166 26C99.2166 25.0133 99.9366 24.0533 100.577 23.12C101.243 22.1867 101.737 21.4133 102.057 20.8C100.083 21.28 98.0166 21.92 95.8566 22.72C93.6966 23.5467 91.5899 24.4667 89.5366 25.48C87.5099 26.52 85.6699 27.6133 84.0166 28.76C82.3632 29.9067 81.0566 31.0533 80.0966 32.2C79.1099 33.3467 78.6166 34.4533 78.6166 35.52C78.6166 36.1867 78.8699 36.68 79.3766 37C79.8566 37.3467 80.5099 37.52 81.3366 37.52Z" fill="white"/>
</svg>
